<svg width="325" height="564" viewBox="0 0 325 564" fill="none" xmlns="http://www.w3.org/2000/svg">
<path d="M316.907 418.612L161.589 557.28L6.27148 418.612V144.576L161.589 6.56885L316.907 144.576V418.612Z" stroke="#F9A51A"/>
<path d="M161.5 564C164.538 564 167 561.314 167 558C167 554.687 164.538 552 161.5 552C158.462 552 156 554.687 156 558C156 561.314 158.462 564 161.5 564Z" fill="#F9A51A"/>
<path d="M161.5 15.0005C164.538 15.0005 167 11.6426 167 7.50049C167 3.35835 164.538 0.000488281 161.5 0.000488281C158.462 0.000488281 156 3.35835 156 7.50049C156 11.6426 158.462 15.0005 161.5 15.0005Z" fill="#F9A51A"/>
<path d="M317.5 424C321.642 424 325 421.314 325 418C325 414.687 321.642 412 317.5 412C313.358 412 310 414.687 310 418C310 421.314 313.358 424 317.5 424Z" fill="#F9A51A"/>
<path d="M6 424C9.31371 424 12 421.314 12 418C12 414.687 9.31371 412 6 412C2.68629 412 0 414.687 0 418C0 421.314 2.68629 424 6 424Z" fill="#F9A51A"/>
<path d="M317.5 151C321.642 151 325 147.866 325 144C325 140.134 321.642 137 317.5 137C313.358 137 310 140.134 310 144C310 147.866 313.358 151 317.5 151Z" fill="#F9A51A"/>
<path d="M6 151C9.31371 151 12 147.866 12 144C12 140.134 9.31371 137 6 137C2.68629 137 0 140.134 0 144C0 147.866 2.68629 151 6 151Z" fill="#F9A51A"/>
</svg>
