<svg width="157" height="273" viewBox="0 0 157 273" fill="none" xmlns="http://www.w3.org/2000/svg">
<path d="M153.261 202.447L78.1472 269.509L3.0332 202.447V69.9185L78.1472 3.17651L153.261 69.9185V202.447Z" stroke="#F9A51A"/>
<path d="M78 273C79.6569 273 81 271.657 81 270C81 268.344 79.6569 267 78 267C76.3431 267 75 268.344 75 270C75 271.657 76.3431 273 78 273Z" fill="#F9A51A"/>
<path d="M78 7.00049C79.6569 7.00049 81 5.43349 81 3.50049C81 1.56749 79.6569 0.000488281 78 0.000488281C76.3431 0.000488281 75 1.56749 75 3.50049C75 5.43349 76.3431 7.00049 78 7.00049Z" fill="#F9A51A"/>
<path d="M153.5 205C155.433 205 157 203.657 157 202C157 200.344 155.433 199 153.5 199C151.567 199 150 200.344 150 202C150 203.657 151.567 205 153.5 205Z" fill="#F9A51A"/>
<path d="M3 205C4.65685 205 6 203.657 6 202C6 200.344 4.65685 199 3 199C1.34315 199 0 200.344 0 202C0 203.657 1.34315 205 3 205Z" fill="#F9A51A"/>
<path d="M153.5 73.0005C155.433 73.0005 157 71.4335 157 69.5005C157 67.5675 155.433 66.0005 153.5 66.0005C151.567 66.0005 150 67.5675 150 69.5005C150 71.4335 151.567 73.0005 153.5 73.0005Z" fill="#F9A51A"/>
<path d="M3 73.0005C4.65685 73.0005 6 71.4335 6 69.5005C6 67.5675 4.65685 66.0005 3 66.0005C1.34315 66.0005 0 67.5675 0 69.5005C0 71.4335 1.34315 73.0005 3 73.0005Z" fill="#F9A51A"/>
</svg>
