<svg width="157" height="273" viewBox="0 0 157 273" fill="none" xmlns="http://www.w3.org/2000/svg">
<path d="M153.261 202.446L78.1469 269.508L3.0329 202.446V69.9183L78.1469 3.17627L153.261 69.9183V202.446Z" stroke="#F9A51A"/>
<path d="M77.9999 273C79.6568 273 80.9999 271.657 80.9999 270C80.9999 268.344 79.6568 267 77.9999 267C76.3431 267 74.9999 268.344 74.9999 270C74.9999 271.657 76.3431 273 77.9999 273Z" fill="#F9A51A"/>
<path d="M77.9999 7.00049C79.6568 7.00049 80.9999 5.43349 80.9999 3.50049C80.9999 1.56749 79.6568 0.000488281 77.9999 0.000488281C76.3431 0.000488281 74.9999 1.56749 74.9999 3.50049C74.9999 5.43349 76.3431 7.00049 77.9999 7.00049Z" fill="#F9A51A"/>
<path d="M153.5 205C155.433 205 157 203.657 157 202C157 200.344 155.433 199 153.5 199C151.567 199 150 200.344 150 202C150 203.657 151.567 205 153.5 205Z" fill="#F9A51A"/>
<path d="M2.99988 205C4.65673 205 5.99988 203.657 5.99988 202C5.99988 200.344 4.65673 199 2.99988 199C1.34302 199 -0.00012207 200.344 -0.00012207 202C-0.00012207 203.657 1.34302 205 2.99988 205Z" fill="#F9A51A"/>
<path d="M153.5 73.0005C155.433 73.0005 157 71.4335 157 69.5005C157 67.5675 155.433 66.0005 153.5 66.0005C151.567 66.0005 150 67.5675 150 69.5005C150 71.4335 151.567 73.0005 153.5 73.0005Z" fill="#F9A51A"/>
<path d="M2.99988 73.0005C4.65673 73.0005 5.99988 71.4335 5.99988 69.5005C5.99988 67.5675 4.65673 66.0005 2.99988 66.0005C1.34302 66.0005 -0.00012207 67.5675 -0.00012207 69.5005C-0.00012207 71.4335 1.34302 73.0005 2.99988 73.0005Z" fill="#F9A51A"/>
</svg>
