<svg width="194" height="337" viewBox="0 0 194 337" fill="none" xmlns="http://www.w3.org/2000/svg">
<path d="M189.299 250.05L96.5219 332.881L3.74591 250.05V86.3593L96.5229 3.92334L189.3 86.3593L189.299 250.05Z" stroke="#F9A51A"/>
<path d="M96.4999 337C98.4329 337 99.9999 335.433 99.9999 333.5C99.9999 331.567 98.4329 330 96.4999 330C94.5669 330 92.9999 331.567 92.9999 333.5C92.9999 335.433 94.5669 337 96.4999 337Z" fill="#F9A51A"/>
<path d="M96.4999 9.00049C98.4329 9.00049 99.9999 6.98577 99.9999 4.50049C99.9999 2.01521 98.4329 0.000488281 96.4999 0.000488281C94.5669 0.000488281 92.9999 2.01521 92.9999 4.50049C92.9999 6.98577 94.5669 9.00049 96.4999 9.00049Z" fill="#F9A51A"/>
<path d="M189.5 253C191.985 253 194 251.433 194 249.5C194 247.567 191.985 246 189.5 246C187.015 246 185 247.567 185 249.5C185 251.433 187.015 253 189.5 253Z" fill="#F9A51A"/>
<path d="M3.50012 253C5.43312 253 7.00012 251.433 7.00012 249.5C7.00012 247.567 5.43312 246 3.50012 246C1.56713 246 0.00012207 247.567 0.00012207 249.5C0.00012207 251.433 1.56713 253 3.50012 253Z" fill="#F9A51A"/>
<path d="M189.5 90.0005C191.985 90.0005 194 88.2096 194 86.0005C194 83.7913 191.985 82.0005 189.5 82.0005C187.015 82.0005 185 83.7913 185 86.0005C185 88.2096 187.015 90.0005 189.5 90.0005Z" fill="#F9A51A"/>
<path d="M3.50012 90.0005C5.43312 90.0005 7.00012 88.2096 7.00012 86.0005C7.00012 83.7913 5.43312 82.0005 3.50012 82.0005C1.56713 82.0005 0.00012207 83.7913 0.00012207 86.0005C0.00012207 88.2096 1.56713 90.0005 3.50012 90.0005Z" fill="#F9A51A"/>
</svg>
