<svg width="194" height="337" viewBox="0 0 194 337" fill="none" xmlns="http://www.w3.org/2000/svg">
<path d="M189.299 250.05L96.5221 332.881L3.74609 250.05V86.3593L96.5231 3.92334L189.3 86.3593L189.299 250.05Z" stroke="#F9A51A"/>
<path d="M96.5 337C98.433 337 100 335.433 100 333.5C100 331.567 98.433 330 96.5 330C94.567 330 93 331.567 93 333.5C93 335.433 94.567 337 96.5 337Z" fill="#F9A51A"/>
<path d="M96.5 9.00049C98.433 9.00049 100 6.98577 100 4.50049C100 2.01521 98.433 0.000488281 96.5 0.000488281C94.567 0.000488281 93 2.01521 93 4.50049C93 6.98577 94.567 9.00049 96.5 9.00049Z" fill="#F9A51A"/>
<path d="M189.5 253C191.985 253 194 251.433 194 249.5C194 247.567 191.985 246 189.5 246C187.015 246 185 247.567 185 249.5C185 251.433 187.015 253 189.5 253Z" fill="#F9A51A"/>
<path d="M3.5 253C5.433 253 7 251.433 7 249.5C7 247.567 5.433 246 3.5 246C1.567 246 0 247.567 0 249.5C0 251.433 1.567 253 3.5 253Z" fill="#F9A51A"/>
<path d="M189.5 90.0005C191.985 90.0005 194 88.2096 194 86.0005C194 83.7913 191.985 82.0005 189.5 82.0005C187.015 82.0005 185 83.7913 185 86.0005C185 88.2096 187.015 90.0005 189.5 90.0005Z" fill="#F9A51A"/>
<path d="M3.5 90.0005C5.433 90.0005 7 88.2096 7 86.0005C7 83.7913 5.433 82.0005 3.5 82.0005C1.567 82.0005 0 83.7913 0 86.0005C0 88.2096 1.567 90.0005 3.5 90.0005Z" fill="#F9A51A"/>
</svg>
